General                          : ChattChitto RG - Movies Release
==========
Complete name                    : Ghost In The Shell 2.0 2008 BDRip.MP4
Format                           : MPEG-4
Format profile                   : Base Media
Codec ID                         : isom
File size                        : 1.54 GiB
Duration                         : 1h 23mn
Overall bit rate                 : 2 647 Kbps
Encoded date                     : UTC 2010-01-20 14:46:24

Video
==========
ID                               : 1
Format                           : AVC
Format/Info                      : Advanced Video Codec
Format profile                   : High@L3.1
Format settings, CABAC           : Yes
Format settings, ReFrames        : 3 frames
Codec ID                         : avc1
Codec ID/Info                    : Advanced Video Coding
Duration                         : 1h 23mn
Bit rate mode                    : Variable
Bit rate                         : 2 300 Kbps
Maximum bit rate                 : 20.5 Mbps
Width                            : 1 280 pixels
Height                           : 688 pixels
Display aspect ratio             : 1.860
Frame rate mode                  : Constant
Frame rate                       : 23.976 fps
Resolution                       : 8 bits
Colorimetry                      : 4:2:0
Scan type                        : Progressive
Bits/(Pixel*Frame)               : 0.109
Stream size                      : 1.34 GiB (87%)
Writing library                  : x264 
Encoded date                     : UTC 2010-01-20 13:16:45

Audio
==========
ID                               : 2
Format                           : AAC
Format/Info                      : Advanced Audio Codec
Format version                   : Version 4
Format profile                   : LC
Format settings, SBR             : No
Codec ID                         : 40
Duration                         : 1h 23mn
Bit rate mode                    : Variable
Bit rate                         : 344 Kbps
Maximum bit rate                 : 426 Kbps
Channel(s)                       : 6 channels
Channel positions                : Front: L C R, Rear: L R, LFE
Sampling rate                    : 48.0 KHz
Stream size                      : 204 MiB (13%)
Language                         : English
Encoded date                     : UTC 2010-01-20 14:47:04

JAPANESE Audio
==========
Format                           : AAC
Format/Info                      : Advanced Audio Codec
Format version                   : Version 4
Format profile                   : LC
Format settings, SBR             : No
Codec ID                         : 40
Duration                         : 1h 23mn
Bit rate mode                    : Variable
Bit rate                         : 187 Kbps
Maximum bit rate                 : 301 Kbps
Channel(s)                       : 6 channels
Channel positions                : Front: L C R, Rear: L R, LFE
Sampling rate                    : 48.0 KHz
Stream size                      : 111 MiB (99%)
Encoded date                     : UTC 2010-01-21 14:31:47


Subtitles                        : English [.srt files]



----------------------------------------------------
IMDB Link: http://www.imdb.com/title/tt1260502/
----------------------------------------------------


Screen Shots:
==============
http://bayimg.com/image/lajjlaacn.jpg
http://bayimg.com/image/lajjpaacn.jpg
http://bayimg.com/image/majjbaacn.jpg
http://bayimg.com/image/majjeaacn.jpg



Plot:
======
Digitally reproduced version of Kôkaku kidôtai (1995); a hacker known as the Puppet Master is hunted by a female cyborg cop and her partner.


Source:
========
Ghost In The Shell 2.0 1995 Blue-Ray 1080p MPEG-4 AVC/
DTS-HD Master Audio 6.1 [21.2Gb]


Notes:
=======
The JAPANESE audio is a separate audio file. Use 2ch Audio Mixing instructions. 
ChattChitto RG Encourages Burning this Film with ConvertXtoDVD.
Enhanced for your viewing pleasure ;)